PathFileType	4	(X/Y/Z)	C:\Users\WrightLab\Desktop\Jo\P1.2Trial33.trc
DataRate	CameraRate	NumFrames	NumMarkers	Units	OrigDataRate	OrigDataStartFrame	OrigNumFrames
100.00	100.00	       32	19	mm	100.00	192	       766
Frame#	Time	Headset_Front			Headset_Back			Headset_Left			Headset_Right			Left_Shoulder			Right_Shoulder			Sternum			C7			Left Elbow			Right Elbow			Left Wrist			Right Wrist			Left ASIS			Right ASIS			S2			Left Knee			Right Knee			Left Ankle			Right Ankle			
		X1	Y1	Z1	X2	Y2	Z2	X3	Y3	Z3	X4	Y4	Z4	X5	Y5	Z5	X6	Y6	Z6	X7	Y7	Z7	X8	Y8	Z8	X9	Y9	Z9	X10	Y10	Z10	X11	Y11	Z11	X12	Y12	Z12	X13	Y13	Z13	X14	Y14	Z14	X15	Y15	Z15	X16	Y16	Z16	X17	Y17	Z17	X18	Y18	Z18	X19	Y19	Z19	

192	1.910							-1008.79352	1435.45874	1379.88098	-918.79272	1171.13330	1381.91211	-1077.65051	1268.17590	1546.74573													-572.35925	1019.66742	1445.52649				-555.08405	759.53247	1356.09839													-724.93695	452.26221	1380.56384							
193	1.920							-1014.46161	1435.13110	1374.91711	-922.08722	1171.31360	1377.76440	-1083.25476	1268.06433	1541.26892													-576.38177	1021.88409	1444.74011				-561.83923	760.82953	1356.45483													-734.34601	457.33228	1371.15991							
194	1.930							-1019.67694	1434.63159	1369.82764	-924.95740	1171.35486	1373.58716	-1088.88623	1267.71118	1534.28394													-580.74823	1024.10437	1444.51355				-567.85706	761.91333	1356.00122													-742.50903	461.17856	1365.23779							
195	1.940							-1024.30994	1433.75903	1364.69934	-927.74048	1171.54456	1369.32849	-1094.11267	1267.04077	1527.77673													-585.27667	1025.03040	1443.73425				-573.80804	763.42200	1355.89636													-750.39746	463.69653	1359.88599							
196	1.950							-1028.85657	1432.84338	1359.43701	-930.64417	1171.72595	1365.00330	-1099.11304	1266.93506	1522.57312													-589.37317	1026.61218	1443.30859				-578.80054	765.16846	1354.99902													-757.31708	465.35043	1355.88574							
197	1.960							-1032.54333	1431.02991	1353.86572	-933.37970	1171.74512	1360.62207	-1104.21838	1266.44153	1515.61218													-592.54816	1028.80371	1443.30847				-584.20593	765.98334	1354.92456													-765.66248	467.05420	1351.25793							
198	1.970				-921.33673	1535.40942	1417.00916	-1037.57349	1430.95325	1348.65881	-935.86975	1171.73645	1356.18262	-1108.78088	1265.69983	1509.19177													-596.33972	1030.00500	1442.56970				-589.60718	767.43170	1353.92712													-773.57623	467.69769	1347.51184							
199	1.980				-926.13556	1534.98096	1412.05334	-1040.85718	1428.82544	1342.90271	-938.60687	1171.52979	1351.67017	-1113.42346	1265.16724	1504.23547													-599.91528	1030.67126	1441.54102				-593.92957	767.80890	1354.16663													-782.23590	468.99667	1345.10303							
200	1.990				-930.73584	1534.47217	1407.12231	-1045.66028	1428.75903	1337.67224	-941.17603	1171.29138	1347.16968	-1117.88306	1264.21106	1498.53406													-602.87543	1032.46008	1442.00977				-598.21967	768.99927	1353.82104													-789.34277	469.46564	1343.68176							
201	2.000				-935.50592	1534.00928	1402.24292	-1048.61511	1426.53577	1331.84875	-943.65204	1170.93298	1342.57153	-1122.08936	1263.36560	1493.08044													-606.25763	1033.70691	1441.06506				-602.42157	769.27026	1353.05737													-798.15796	470.04477	1341.19141							
202	2.010				-940.19208	1533.49573	1397.28259	-1052.14514	1425.40771	1326.31543	-946.03424	1170.34033	1337.98193	-1126.42712	1262.36523	1490.63464													-609.24530	1034.44312	1439.83997				-605.72333	769.76605	1352.68152													-803.65729	473.28281	1337.19116							
203	2.020				-944.51111	1532.87415	1392.34717	-1055.46265	1424.06384	1320.67944	-948.27704	1169.75940	1333.33667	-1130.10779	1261.31042	1484.63440													-612.30975	1035.50684	1438.86072				-609.10675	770.33899	1352.48535													-808.34753	474.90201	1331.31873							
204	2.030				-948.60126	1532.23523	1387.32068	-1058.54749	1422.89319	1315.04797	-950.50311	1169.17029	1328.73584	-1133.81323	1260.26746	1478.61267													-614.43066	1035.45642	1437.64465				-611.65967	770.67505	1351.83057													-813.51788	477.01553	1324.47461							
205	2.040				-952.35974	1531.61035	1382.19702	-1061.24084	1421.53491	1309.41455	-952.50360	1168.34680	1324.05457	-1137.03369	1258.96411	1472.56702													-617.52673	1035.76941	1435.49573				-614.23022	770.20087	1350.89050													-817.68359	477.96780	1319.96753							
206	2.050				-955.68256	1530.81616	1376.98145	-1063.91821	1420.42444	1303.77734	-954.54858	1167.67627	1319.28210	-1140.21997	1257.85107	1466.53979													-619.28387	1036.40247	1434.43896				-616.56848	770.28687	1350.22058				-795.69861	855.26715	1354.22571							-822.16272	478.87015	1315.21191							
207	2.060				-958.91821	1530.12976	1371.64734	-1066.31348	1419.10059	1297.88501	-956.38251	1166.83911	1314.39844	-1143.23669	1256.57153	1460.44946													-621.72748	1036.24170	1432.04468				-617.25061	770.06342	1349.82507				-797.35052	855.31750	1349.64819							-827.57800	480.51349	1310.25854							
208	2.070				-961.86829	1529.38721	1366.25977	-1068.75073	1418.16833	1292.04370	-958.18805	1165.92773	1309.36047	-1146.00220	1255.23340	1454.40100													-623.67401	1036.68921	1429.84705				-618.70673	769.11633	1348.63403				-799.34058	855.27252	1346.41943							-831.61945	481.39453	1305.65015							
209	2.080				-964.78815	1528.73218	1360.77258	-1070.66052	1416.84436	1286.05847	-959.82654	1165.13342	1304.27661	-1148.29675	1253.90430	1448.33154													-625.59430	1036.80896	1427.27136				-619.61322	768.65704	1348.13733				-800.83795	854.10913	1344.75818							-835.11115	481.76340	1301.06738							
210	2.090				-967.64331	1528.12732	1355.24353	-1072.52832	1415.82532	1280.10425	-961.34784	1164.14111	1299.08264	-1150.76196	1252.70715	1442.21472													-627.79517	1036.81384	1424.27856				-620.01038	768.07397	1347.33801				-801.69061	853.16803	1338.49707							-838.68750	482.78156	1295.85583							
211	2.100				-969.91388	1527.40271	1349.62756	-1074.34607	1414.83411	1273.97571	-962.85870	1163.38989	1293.84009	-1153.05920	1251.60510	1436.01318													-629.43610	1036.73608	1421.24719				-620.14771	767.72943	1346.99573				-802.93781	854.19330	1332.49646							-842.12286	482.81390	1290.54126							
212	2.110				-971.88452	1526.51965	1343.92542	-1075.74646	1413.75244	1267.84949	-964.10620	1162.45044	1288.46350	-1154.83374	1250.34241	1429.81494													-631.58167	1036.83325	1419.08142				-620.19946	767.43811	1344.95471				-804.26404	852.99457	1329.90503							-845.30463	483.44409	1285.21326							
213	2.120				-973.92822	1525.80444	1338.14478	-1077.15247	1412.76587	1261.60376	-965.55872	1161.79077	1283.03113	-1156.88525	1249.43738	1423.53564													-632.54785	1036.22864	1415.48315				-619.45868	767.11066	1343.83020				-805.32172	852.05670	1323.10437							-848.52551	483.94604	1277.60486	-875.20105	132.00433	1284.83130				
214	2.130				-975.54846	1524.99792	1332.31213	-1078.22705	1411.69531	1255.35327	-966.74890	1160.98132	1277.46741	-1158.54688	1248.35693	1417.26794	-932.62531	1344.62964	1464.20483										-633.96320	1035.87549	1411.85242				-618.96307	766.37854	1342.17908				-807.42084	851.26959	1321.46277							-850.91400	484.16742	1272.68860	-876.77240	135.98238	1265.92175				
215	2.140				-976.92072	1524.14734	1326.36963	-1079.29639	1410.76038	1249.03711	-968.03064	1160.16626	1271.79883	-1160.14063	1247.43445	1411.05640	-934.52655	1344.00415	1458.51965										-635.63550	1035.32666	1408.80042				-618.26965	765.96271	1339.90869				-808.60968	849.43793	1314.57556							-852.24451	484.15216	1266.39453	-876.83649	141.39496	1244.75488				
216	2.150				-978.21185	1523.35193	1320.43469	-1081.65735	1411.24475	1243.13794	-969.19830	1159.43201	1266.14319	-1161.63318	1246.50342	1404.79126	-935.85577	1343.16943	1452.92273										-637.11694	1035.06152	1405.05859				-616.86078	766.11285	1338.36365				-810.52557	849.87146	1309.21362							-853.79395	484.33398	1258.16296	-878.46936	143.02968	1229.01392				
217	2.160				-979.27997	1522.60547	1314.39355	-1080.76257	1408.96179	1236.36255	-970.38855	1158.59534	1260.27441	-1162.86108	1245.65015	1398.50891	-937.72742	1342.63525	1447.18481										-638.55206	1034.49194	1399.93225				-616.08264	765.23578	1336.15625				-812.43726	848.13287	1303.96973							-855.03741	484.79184	1252.71777	-880.50830	147.36955	1213.19849				
218	2.170				-980.05188	1521.68945	1308.26147	-1083.14026	1409.61023	1230.35730	-971.44550	1157.93713	1254.46204	-1164.16882	1244.97119	1392.18042	-938.92627	1341.75195	1441.30347										-639.55414	1033.64294	1396.53796				-614.68640	763.93280	1333.91431				-813.91046	847.99719	1297.23010							-855.62726	484.44803	1246.36450	-882.05664	149.78917	1197.03625				
219	2.180				-980.93909	1521.02893	1302.08667	-1081.53699	1407.09058	1223.44446	-972.36761	1157.10840	1248.38440	-1165.03674	1244.11902	1385.85413	-940.08417	1340.79688	1435.49768										-640.58698	1032.80396	1392.05127				-613.12421	763.33685	1331.14954				-815.94513	846.20526	1292.11169							-855.85706	484.58862	1238.94263	-884.83105	153.74236	1182.23840				
220	2.190				-980.86279	1519.90906	1295.78821	-1081.72766	1406.37134	1216.84241	-973.44519	1156.50476	1242.26013	-1166.25525	1243.73071	1379.53503	-940.92578	1339.74915	1429.54846										-641.45239	1031.77710	1387.30566				-611.97510	762.49475	1328.63818				-816.39081	847.00500	1282.70630							-854.94604	484.00284	1232.88293	-886.27594	156.65227	1167.12720				
221	2.200				-981.37286	1519.27075	1289.49597	-1081.58154	1405.40417	1210.16785	-974.27209	1155.65344	1235.96313	-1166.89221	1242.79602	1373.07703	-941.86932	1338.80603	1423.47510										-642.26086	1030.91809	1382.88281				-610.50201	761.48596	1326.34314				-818.59717	845.26276	1277.97314							-854.11646	483.89893	1225.89441	-886.82715	160.79218	1151.73303				
222	2.210				-981.32208	1518.34851	1283.14148	-1081.46582	1404.90125	1203.42297	-975.03113	1154.98352	1229.62329	-1167.65320	1242.25586	1366.53406	-942.44403	1337.60315	1417.33191										-643.07880	1029.07019	1377.07422				-608.45660	760.31268	1322.67432				-819.23053	844.40570	1270.00232							-852.96167	482.82214	1218.94812	-885.96991	164.15050	1137.41809				
223	2.220				-981.48022	1517.69421	1276.84485	-1081.05859	1404.06665	1196.62268	-975.71014	1154.21716	1223.16028	-1168.42505	1241.63135	1359.90039	-943.42487	1336.73975	1411.14868										-643.86456	1027.48230	1372.75342				-607.00317	759.08435	1318.71143				-821.34503	842.23676	1264.87000	-902.35229	952.47839	1558.78625				-852.20459	482.00137	1211.82532	-884.18689	168.28758	1124.13379				
